<svg width="332" height="332" viewBox="0 0 332 332" fill="none" xmlns="http://www.w3.org/2000/svg">
<path fill-rule="evenodd" clip-rule="evenodd" d="M163.748 1.07412C154.431 5.28973 145.783 43.5209 141.924 97.5547C141.576 102.424 141.242 106.468 141.182 106.544C141.123 106.619 138.609 104.532 135.596 101.907C103.807 74.206 74.0567 53.3939 59.5993 48.7427C46.4904 44.5252 43.6137 50.7408 51.2865 66.7025C58.9137 82.5683 78.0598 108.695 102.078 136.01C104.979 139.31 107.353 142.066 107.353 142.135C107.353 142.203 105.312 142.373 102.818 142.512C88.6637 143.3 66.0123 145.625 52.0105 147.726C5.4835 154.708 -11.5897 165.255 8.20692 174.784C16.7118 178.878 28.3322 181.916 47.7534 185.125C56.7985 186.618 73.1642 188.617 82.7356 189.396C84.1608 189.512 85.8266 189.676 86.4374 189.76C87.0482 189.844 89.2138 190.014 91.2498 190.137C93.2858 190.26 95.3681 190.429 95.8771 190.512C96.3861 190.594 98.8848 190.771 101.43 190.905C103.975 191.038 106.181 191.22 106.334 191.309C106.486 191.397 104.814 193.493 102.618 195.967C79.7364 221.743 60.1601 248.242 51.9583 264.541C43.7521 280.85 45.9943 287.738 58.348 284.171C72.8262 279.99 101.711 260.034 135.116 231.133C137.458 229.107 139.806 227.056 140.335 226.575L141.297 225.701L141.745 231.894C146.164 292.861 155.47 331.222 165.841 331.222C173.17 331.222 180.343 311.39 185.252 277.554C187.105 264.779 189.438 241.8 190.131 229.499C190.271 227.008 190.511 225.016 190.665 225.073C190.819 225.131 193.834 227.678 197.365 230.734C235.127 263.416 266.186 283.886 278.311 284.084C281.145 284.13 282.561 283.595 283.711 282.043C284.364 281.161 284.479 280.502 284.448 277.801C284.404 273.987 283.259 270.483 279.811 263.606C271.763 247.553 253.114 222.235 229.769 195.669C227.63 193.235 225.906 191.222 225.938 191.195C225.97 191.169 228.058 191.03 230.578 190.886C233.099 190.741 235.514 190.57 235.946 190.505C236.378 190.439 238.314 190.28 240.248 190.15C242.182 190.021 244.431 189.844 245.245 189.758C246.06 189.671 249.558 189.339 253.019 189.02C285.188 186.055 312.468 180.493 324.094 174.527C327.736 172.658 331.102 169.739 331.511 168.095C332.595 163.74 327.343 159.525 316.046 155.682C299.194 149.95 269.984 145.453 231.307 142.635L225.143 142.186L227.747 139.235C248.137 116.128 266.383 92.2635 275.73 76.477C282.88 64.4023 285.982 55.0523 284.129 51.1609C283.165 49.1385 280.863 48.1474 277.791 48.4329C265.895 49.5398 239.826 66.2167 206.561 93.9997C202.795 97.1456 197.671 101.524 195.175 103.73C192.472 106.118 190.581 107.545 190.499 107.258C190.423 106.993 190.084 102.543 189.744 97.3703C187.59 64.5639 182.602 32.5733 177.092 16.2229C175.405 11.2168 172.564 5.39632 170.831 3.39272C169.434 1.77826 167.137 0.355962 165.949 0.370347C165.584 0.374774 164.594 0.691618 163.748 1.07412Z" fill="#E5B12B"/>
</svg>
