<svg width="1839" height="896" viewBox="0 0 1839 896" fill="none" xmlns="http://www.w3.org/2000/svg">
<path fill-rule="evenodd" clip-rule="evenodd" d="M298.371 0.926056C279.338 6.37806 263.932 34.5721 259.251 72.5221C257.987 82.7711 258.16 105.769 259.582 116.33C262.953 141.369 270.671 161.191 282.041 174.004C288.346 181.11 293.061 183.853 300.781 184.907C312.451 186.5 318.926 183.325 328.704 171.216C335.537 162.754 341.292 150.117 345.309 134.754C349.301 119.484 349.765 114.198 349.356 88.5651C349.016 67.1801 348.818 64.6531 346.866 56.8301C341.806 36.5361 335.248 22.2921 326.35 12.2641C320.542 5.71905 314.85 2.17706 307.919 0.795056C302.501 -0.284944 302.603 -0.286944 298.371 0.926056ZM138.202 91.8571C120.862 97.1731 109.667 121.479 109.667 153.819C109.667 203.648 134.251 256.267 163.271 268.551C170.957 271.805 180.307 271.542 186.409 267.902C191.89 264.631 200.077 254.58 202.757 247.83C207.275 236.449 208.511 228.035 208.559 208.33C208.604 189.457 208.013 183.71 204.45 168.362C198.269 141.743 180.873 110.735 166.083 99.9751C155.91 92.5751 145.627 89.5811 138.202 91.8571ZM457.174 92.2841C437.299 97.4141 416.732 125.224 406.391 160.949C401.463 177.975 400.077 188.4 400.088 208.33C400.097 224.104 400.332 227.319 401.988 234.33C404.939 246.824 408.272 254.109 414.039 260.675C421.052 268.662 426.771 271.248 436.026 270.621C462.231 268.846 488.39 229.566 497.156 178.83C499.34 166.188 499.155 140.089 496.809 129.712C490.464 101.648 475.53 87.5461 457.174 92.2841ZM847.81 181.95C837.712 184.774 828.69 189.556 816.175 198.719C805.828 206.294 804.102 205.647 803.034 193.79C802.639 189.42 801.857 186.005 800.979 184.825C798.95 182.095 794.005 181.509 784.148 182.829C756.426 186.542 724.743 198.764 707.97 212.215C697.674 220.471 694.096 227.192 694.82 236.915C695.635 247.857 699.541 252.467 710.44 255.353C713.959 256.285 717.352 257.674 717.981 258.439C720.936 262.035 721.295 269.778 721.295 329.83C721.295 393.488 721.057 397.648 716.795 408.618C714.391 414.806 711.433 418.021 703.805 422.733C698.597 425.952 696.912 429.842 697.24 437.893C697.47 443.538 697.914 445.146 700.417 449.387C707.999 462.235 729.468 473.822 753.945 478.273C786.996 484.284 816.48 478.305 823.676 464.13C828.645 454.346 826.309 443.174 818.235 438.104C813.741 435.282 809.569 430.654 807.876 426.615C804.163 417.756 803.991 403.08 807.541 398.056L809.41 395.41L822.86 400.87L836.308 406.33L847.399 406.273C856.15 406.229 859.935 405.748 865.339 403.994C888.291 396.545 907.421 376.817 919.539 348.101C927.911 328.263 931.551 310.051 931.486 288.33C931.329 235.76 908.95 192.71 876.638 182.819C869.6 180.665 854.078 180.197 847.81 181.95ZM1011.29 182.414C983.242 187.686 954.25 203.691 943.669 219.744C930.163 240.236 937.819 265.511 957.414 265.116C969.305 264.876 976.751 258.689 989.05 238.83C999.136 222.543 1002.99 218.83 1009.79 218.83C1017.11 218.83 1021.4 222.968 1024.32 232.83C1027.33 243.004 1028.37 264.828 1026.15 271.284C1024.08 277.323 1022.32 277.993 1008.87 277.89C973.281 277.615 945.377 291.789 932.033 316.921C927.115 326.184 925.021 335.203 925.091 346.83C925.189 363.184 929.514 376.091 938.493 386.831C944.843 394.425 952.349 399.547 962.855 403.454C969.584 405.956 971.384 406.195 983.773 406.225C996.979 406.257 997.53 406.174 1005.19 402.979C1010.38 400.81 1016.36 397.184 1022.85 392.267C1035.67 382.549 1036.25 382.537 1043.52 391.854C1052.5 403.353 1061.46 407.498 1075.37 406.597C1083.89 406.046 1094.3 402.144 1101.79 396.695C1104.33 394.844 1109.31 390.023 1112.86 385.982C1120.63 377.134 1124.94 367.76 1125.66 358.138C1126.28 349.792 1125.41 348.235 1119.61 347.354C1113.91 346.487 1111.97 345.043 1109.59 339.882C1105.94 331.976 1105.21 323.162 1104.61 279.83L1104.05 239.33L1101.58 230.786C1098.45 220.009 1094.39 212.545 1087.33 204.589C1070.69 185.841 1040.26 176.968 1011.29 182.414ZM1170.67 182.834C1153.47 184.468 1137.6 188.717 1128.94 194.009C1124.23 196.891 1119.51 203.132 1118.86 207.338C1118.08 212.394 1118.92 218.685 1120.78 221.743C1121.65 223.184 1124.5 225.344 1127.2 226.618C1136.87 231.172 1139.79 233.175 1143.41 237.713C1145.74 240.624 1160.68 269.266 1183.87 315.22C1204.09 355.31 1222.43 390.729 1224.61 393.93C1231.4 403.86 1239.63 407.82 1247.17 404.789C1254.2 401.966 1258.55 394.077 1289.74 327.644C1298.62 308.725 1303.68 304.937 1309.86 312.58C1312.83 316.256 1323.55 336.112 1338.02 364.727C1356.62 401.509 1367.29 411.352 1379.42 402.888C1384.26 399.508 1389.84 392.296 1395.32 382.33C1400.71 372.525 1401.21 371.403 1429.9 303.33C1444.04 269.78 1457.01 240.16 1458.72 237.508C1463.82 229.596 1470.58 223.972 1478.74 220.845C1483.97 218.843 1488.26 215.574 1489.5 212.64C1491.34 208.307 1490.99 199.72 1488.8 195.767C1484.83 188.596 1477.56 184.873 1463.57 182.841C1449.76 180.835 1430.3 182.029 1420 185.512C1405.11 190.553 1400.54 203.648 1408.79 217.641C1415.8 229.545 1415.84 230.463 1409.82 245.363C1402.87 262.553 1396.76 271.61 1390.92 273.394C1388.9 274.011 1388.13 273.44 1384.25 268.444C1379.24 261.998 1371.31 243.651 1369.85 235.144C1368.8 229.03 1369.05 228.254 1374.76 220.319C1379.57 213.628 1381.2 207.4 1379.81 201.084C1376.67 186.903 1357.04 180.704 1320.19 182.257C1281.79 183.875 1264.59 189.305 1259.81 201.323C1258.4 204.872 1258.24 206.304 1258.89 209.806C1259.8 214.747 1261.84 217.656 1268.02 222.844C1276.6 230.041 1280.34 236.576 1280.34 244.345C1280.34 251.208 1270.12 270.568 1265.56 272.328C1261.73 273.81 1255.16 266.14 1248.13 251.981C1243.24 242.122 1239.32 231.4 1239.29 227.784C1239.28 226.383 1240.55 222.783 1242.12 219.784C1245.61 213.117 1246.27 209.478 1245.01 203.739C1242.91 194.207 1233.44 187.477 1217.64 184.296C1208.48 182.453 1183.02 181.661 1170.67 182.834ZM825.153 245.807C837.764 250.21 844.258 268.722 844.28 300.33C844.296 322.469 841.327 334.73 834.136 342.222C829.887 346.65 826.628 347.824 818.646 347.802C810.255 347.78 806.02 345.436 803.849 339.614C802.423 335.79 802.25 332.967 802.241 313.33C802.219 269.81 805.059 250.445 812.098 246.109C814.533 244.61 821.277 244.454 825.153 245.807ZM25.115 248.473C16.9581 251.949 10.4836 259.374 5.85595 270.56C0.548056 283.389 0.00667642 287.02 0.000104195 309.83C-0.00728956 332.169 0.36651 335.324 5.08208 352.781C13.8856 385.371 29.5685 410.416 48.3536 421.885C54.6366 425.721 55.0515 425.83 63.3555 425.83C73.5162 425.83 76.9321 424.285 83.8962 416.537C89.3372 410.485 94.7896 397.557 97.0595 385.33C99.2193 373.7 99.0033 351.826 96.5912 337.83C91.5709 308.701 81.4948 284.573 66.9472 266.842C59.307 257.529 53.093 252.553 44.8145 249.117C38.4287 246.467 30.4353 246.206 25.115 248.473ZM566.848 247.548C550.022 252.525 530.816 276.771 520.486 306.079C512.665 328.263 510.221 342.216 510.282 364.33C510.318 377.288 510.651 381.778 512.032 387.948C515.795 404.767 522.965 417.218 532.08 422.761C536.723 425.586 537.793 425.83 545.524 425.83C553.664 425.83 554.124 425.708 560.386 421.886C583.401 407.837 602.633 371.231 607.946 331.36C609.351 320.818 609.517 301.13 608.279 291.83C605.285 269.335 595.845 252.884 583.292 248.285C579.526 246.905 570.403 246.496 566.848 247.548ZM285.023 300.007C257.923 325.19 239.043 344.093 214.412 370.699C199.519 386.787 165.662 428.296 152.316 446.83C93.2986 528.789 58.7237 608.192 49.7321 682.423C44.1893 728.179 48.5746 769.365 62.8445 805.571C77.4299 842.577 101.014 868.68 130.757 880.736C177.95 899.865 226.773 878.427 263.775 822.33C274.182 806.553 285.249 782.73 294.086 757.083C296.218 750.897 298.261 746.06 298.625 746.334C298.989 746.609 301.023 751.895 303.145 758.081C322.188 813.62 349.551 852.816 383.891 873.745C399.42 883.21 413.597 887.035 433.349 887.09C452.238 887.143 463.419 884.036 479.394 874.295C495.153 864.686 507.536 852.648 518.19 836.581C534.766 811.582 544.089 783.924 548.443 746.83C549.726 735.893 549.716 705.209 548.424 692.33C541.891 627.21 517.589 561.219 474.403 491.33C434.661 427.015 382.773 365.763 312.305 299.979C305.147 293.297 299.028 287.83 298.708 287.83C298.388 287.83 292.23 293.31 285.023 300.007ZM1025.23 311.204C1027.76 314.28 1028.47 320.248 1027.93 333.722C1027.44 345.75 1025.92 351.555 1022.27 355.294C1015.55 362.173 1004.98 358.234 1000.91 347.339C998.642 341.25 998.847 329.746 1001.34 323.33C1004.97 314.004 1011.13 308.939 1018.93 308.869C1022.44 308.838 1023.66 309.289 1025.23 311.204ZM783.32 516.497C744.159 520.935 705.734 537.941 696.503 554.919C694.741 558.161 694.331 560.026 694.425 564.381C694.628 573.783 697.885 578.531 707.765 583.831C714.735 587.57 718.959 591.947 720.099 596.61C720.741 599.241 720.908 622.726 720.668 676.83C720.307 758.421 720.212 760.53 715.913 782.819C713.766 793.952 713.995 797.474 717.045 800.231C718.943 801.947 720.519 802.322 725.671 802.288C730.832 802.254 733.141 801.664 738.404 799.038C741.94 797.274 745.781 795.83 746.941 795.83C748.101 795.83 752.231 798.258 756.121 801.225C769.865 811.709 782.095 817.895 796.054 821.424C804.855 823.648 828.92 823.967 837.541 821.973C881.087 811.902 912.986 773.732 922.276 720.58C924.719 706.597 924.753 683.643 922.35 669.711C913.13 616.257 873.512 585.767 834.14 601.823C825.129 605.498 818.379 609.97 809.011 618.472C805.157 621.969 801.727 624.83 801.389 624.83C798.803 624.83 798.723 622.031 799.985 575.557C800.676 550.106 800.949 527.332 800.59 524.949C799.391 516.966 795.591 515.107 783.32 516.497ZM1352.23 516.512C1350.42 516.702 1343.58 517.761 1337.03 518.865C1300.2 525.071 1275.88 535.466 1269.12 547.888C1267.3 551.241 1267.05 552.606 1267.37 557.359C1267.91 565.195 1269.71 567.66 1277.95 571.83C1287.46 576.638 1288.32 577.342 1290.2 581.824C1292.4 587.078 1292.52 600.682 1290.41 605.83C1289.15 608.881 1288.6 609.315 1286.1 609.21C1284.51 609.145 1279.6 607.242 1275.18 604.983C1263.42 598.978 1256.27 597.481 1242.22 598.087C1232.93 598.488 1229.22 599.106 1223.43 601.213C1194.65 611.691 1170.5 642.183 1161.7 679.168C1158.83 691.205 1157.95 698.535 1157.94 710.449C1157.91 759.268 1185.73 807.246 1222.02 820.972C1227.17 822.923 1229.98 823.305 1239.27 823.316C1245.94 823.325 1252.16 822.785 1254.88 821.962C1260.93 820.131 1271.97 813.825 1278.17 808.655C1280.95 806.343 1284.47 803.412 1286.01 802.141C1289.67 799.103 1293.88 799.076 1295.45 802.08C1296.09 803.317 1296.88 806.805 1297.2 809.83C1298.51 822.141 1300.46 823.394 1316.85 822.451C1337.54 821.262 1361.91 815.657 1373.48 809.433C1384.3 803.607 1389.64 796.243 1389.57 787.242C1389.52 779.954 1388.1 777.035 1381.34 770.335C1377.11 766.136 1374.6 762.738 1373.18 759.299L1371.12 754.33L1370.71 640.83C1370.32 531.376 1370.25 527.192 1368.72 523.453C1367.62 520.761 1366.12 519.011 1363.79 517.725C1360.54 515.929 1359.15 515.783 1352.23 516.512ZM1577.74 516.456C1538.9 521.912 1514.55 529.23 1501.82 539.276C1493.75 545.638 1491.03 550.986 1491.97 558.606C1492.76 565.046 1496.09 569.208 1502.56 571.827C1509.69 574.717 1512.89 577.512 1515.16 582.838C1516.83 586.752 1517.02 588.368 1516.7 595.393C1516.25 605.078 1514.56 609.83 1511.58 609.83C1510.45 609.83 1506.12 608.063 1501.94 605.903C1489.07 599.245 1485.37 598.366 1470.12 598.347C1458.61 598.333 1455.55 598.667 1449.86 600.563C1417.6 611.312 1392.31 645.373 1384.12 689.105C1382.08 699.949 1382.28 721.672 1384.53 733.635C1389.04 757.752 1399.14 779.547 1413.62 796.437C1430.31 815.918 1447.72 824.691 1467.24 823.466C1483.3 822.458 1491.69 818.451 1509.14 803.434C1513.61 799.593 1518.41 798.663 1520.21 801.294C1520.75 802.099 1521.51 805.714 1521.87 809.328C1522.63 816.782 1524.25 820.441 1527.46 821.983C1530.18 823.288 1548.28 822.422 1561.01 820.378C1597.7 814.487 1616.5 801.861 1614.36 784.541C1613.67 778.929 1611.28 774.839 1605.79 769.906C1600.68 765.303 1597.76 760.839 1596.63 755.871C1596.12 753.659 1595.8 712.748 1595.77 646.83C1595.74 588.805 1595.43 537.935 1595.07 533.785C1594.33 525.247 1593.04 521.333 1590.06 518.676C1587.9 516.742 1582.55 515.78 1577.74 516.456ZM987.776 600.304C950.657 603.72 929.586 610.186 922.2 620.424C919.694 623.9 919.539 624.536 919.863 630.002C920.292 637.221 921.91 640.046 927.909 644.055C937.565 650.506 940.884 656.748 943.209 672.83C943.568 675.305 943.882 694.88 943.909 716.33C943.963 758.525 944.313 763.316 948.505 779.338C954.892 803.749 967.074 816.33 989.216 821.382C999.355 823.696 1015.61 822.987 1023.62 819.882C1030.51 817.208 1040.02 810.914 1049.42 802.795C1056.79 796.433 1059.55 795.547 1062.54 798.58C1063.79 799.846 1064.48 802.218 1065.05 807.157C1065.98 815.406 1067.33 818.132 1071.88 820.959C1075.13 822.973 1076.16 823.076 1087.69 822.536C1117.17 821.153 1146.68 811.687 1157.05 800.286C1163.26 793.458 1164.97 786.746 1162.44 779.1C1161.21 775.35 1159.51 773.622 1151.9 768.375C1148.89 766.299 1147.52 764.54 1146.3 761.182C1144.74 756.884 1144.69 754.402 1144.85 686.034C1145.01 621.539 1144.9 614.979 1143.63 611.33C1140.07 601.094 1134.28 598.264 1119.03 599.299C1080.08 601.944 1053.2 609.645 1045.46 620.385C1043.43 623.202 1042.92 624.796 1042.92 628.414C1042.92 634.972 1044.75 638.344 1050.97 643.232C1057.78 648.588 1059.77 651.171 1061.39 656.768C1064.5 667.513 1065.13 732.188 1062.25 746.611C1059.84 758.761 1055.31 765.565 1048.21 767.742C1038.53 770.71 1030.76 767.094 1026.9 757.82C1022.99 748.429 1022.97 747.974 1022.46 674.602L1021.97 604.873L1019.74 602.149C1017.66 599.618 1016.95 599.408 1009.88 599.198C1005.69 599.073 995.741 599.571 987.776 600.304ZM1666.05 599.799C1647.84 601.156 1633.25 604.268 1623.75 608.828C1610.53 615.171 1605.09 627.048 1609.98 638.868C1611.63 642.848 1612.72 643.887 1620.05 648.484C1624.56 651.318 1629.56 655.158 1631.14 657.016C1633.35 659.622 1640.2 676.07 1661.06 728.863C1689.45 800.704 1692.67 809.383 1694.87 819.834C1698.09 835.138 1692.52 848.83 1683.07 848.83C1676.95 848.83 1676.57 848.275 1671.41 831.738C1669.76 826.463 1667.4 820.031 1666.15 817.446C1657.86 800.222 1634.53 799.33 1621.4 815.735C1608.87 831.39 1609.27 857.275 1622.3 874.484C1637.15 894.083 1668.62 900.906 1695.06 890.255C1721.2 879.726 1739.95 855.085 1756.24 809.83C1762.38 792.768 1765.33 783.193 1780.3 731.83C1792.07 691.464 1799.78 668.775 1804.94 659.311C1808.83 652.168 1814.79 646.676 1823.51 642.2C1835.17 636.213 1838.16 632.055 1838.16 621.812C1838.16 613.413 1835.31 608.771 1827.48 604.455C1820.74 600.74 1813.61 599.431 1800.37 599.477C1776.59 599.561 1760.63 605.811 1756 616.848C1752.9 624.244 1754 630.056 1760.43 640.33C1766.36 649.796 1767.02 657.521 1763.21 672.83C1759.67 687.085 1753.62 696.865 1748.38 696.794C1743.91 696.733 1737.93 688.728 1732.42 675.403C1725.94 659.757 1724.75 649.707 1728.49 642.33C1729.6 640.13 1731.48 635.938 1732.67 633.014C1735.3 626.51 1734.95 621.368 1731.4 614.555C1729.5 610.913 1727.85 609.321 1723.01 606.463C1719.7 604.506 1714.21 602.193 1710.83 601.323C1703.42 599.422 1681.25 598.668 1666.05 599.799ZM1280.14 647.516C1286.02 650.912 1290.26 661.389 1291.93 676.638C1293.27 688.926 1292.42 730.957 1290.63 740.83C1286.54 763.374 1276.67 773.489 1263.84 768.3C1256.15 765.191 1250.1 755.47 1247.07 741.33C1244.71 730.363 1243.82 714.064 1244.87 701.004C1247.12 673.031 1254.03 654.017 1264.15 647.916C1268.48 645.31 1276 645.122 1280.14 647.516ZM1504.08 647.2C1508.08 649.234 1512.38 655.982 1514.37 663.354C1516.9 672.757 1518.07 691.235 1517.46 712.33C1516.42 748.387 1510.8 765.346 1498.72 768.873C1491.72 770.918 1485.05 768.093 1479.62 760.777C1473.3 752.257 1470.19 739.421 1469.53 719.17C1468.4 684.093 1475.97 656.153 1488.85 647.873C1492.49 645.529 1500.13 645.192 1504.08 647.2ZM825.046 666.727C837.174 674.276 844.221 698.153 844.259 731.83C844.3 767.124 834.114 786.215 816.089 784.628C803.969 783.561 801.2 773.743 799.642 726.33C798.675 696.884 799.017 684.612 800.995 677.79C802.482 672.658 805.679 668.159 809.198 666.247C812.943 664.213 821.418 664.469 825.046 666.727Z" fill="black"/>
</svg>
